<svg width="150" height="150" viewBox="0 0 150 150" fill="none" xmlns="http://www.w3.org/2000/svg">
<rect width="150" height="150" rx="10" fill="black"/>
<path fill-rule="evenodd" clip-rule="evenodd" d="M81.866 25C81.866 24.4477 81.4183 24 80.866 24H78.866C78.3137 24 77.866 24.4477 77.866 25V102.343L77.866 102.5C77.8062 103.119 77.8666 103.848 77.866 104.483C77.866 104.488 77.866 104.494 77.866 104.5C77.866 115.27 86.5964 124 97.366 124C108.136 124 116.866 115.27 116.866 104.5C116.866 93.7304 108.136 85 97.366 85C93.0655 85 89.0902 86.3921 85.866 88.7503C84.3524 89.8574 81.866 92.5 81.866 92.6662V25ZM81.866 101.657V100.5L81.866 99.8438C81.866 99.8438 81.866 99.8438 81.866 99.8437C81.866 99.8437 81.866 98.5 83.0625 97C83.3656 96.62 83.9098 96.1343 84.0359 96.0233C84.0538 96.0076 84.0709 95.9916 84.0877 95.9748L85.0625 95C85.5625 94.5 92.3453 89 97.366 89C105.926 89 112.866 95.9396 112.866 104.5C112.866 113.06 105.926 120 97.366 120C88.8056 120 81.866 113.06 81.866 104.5C81.866 103.988 81.818 103.497 81.866 103V102V101.657Z" fill="white"/>
<path fill-rule="evenodd" clip-rule="evenodd" d="M50.9357 82.7895C58.2781 68.2876 63.5532 51.0236 68.866 26.9906L69.2849 25.081C69.3077 24.9771 69.3469 24.8776 69.401 24.7861L69.5757 24.4909C69.7556 24.1866 70.0829 24 70.4363 24H71.5H71.866C72.4183 24 72.866 24.4477 72.866 25V25.5V26.5C72.866 27 72.866 27.4268 72.866 27.4268C72.866 27.4268 72.866 27.4268 72.866 27.4268V123.924C72.866 124.477 72.4183 124.924 71.866 124.924H69.866C69.3137 124.924 68.866 124.477 68.866 123.924V97.6742C68.866 97.1219 68.4183 96.6742 67.866 96.6742H56.3617C55.8094 96.6742 55.3617 96.2265 55.3617 95.6742V93.6742C55.3617 93.1219 55.8094 92.6742 56.3617 92.6742H67.866C68.4183 92.6742 68.866 92.2265 68.866 91.6742V45C68.866 48 60.2422 73.2637 54.5043 84.5963C46.7901 99.8325 36.8355 112.161 22.4635 125.699C22.0614 126.077 21.4263 126.058 21.0491 125.655L19.683 124.194C19.3058 123.79 19.3294 123.156 19.7314 122.777C33.8637 109.464 43.4883 97.4985 50.9357 82.7895Z" fill="white"/>
<path d="M130.232 119.424C130.232 122.462 127.77 124.924 124.732 124.924C121.694 124.924 119.232 122.462 119.232 119.424C119.232 116.387 121.694 113.924 124.732 113.924C127.77 113.924 130.232 116.387 130.232 119.424Z" fill="#FF3E55"/>
</svg>
